<svg xmlns="http://www.w3.org/2000/svg" xmlns:xlink="http://www.w3.org/1999/xlink" width="26" height="26" viewBox="0 0 26 26">
    <defs>
        <path id="a" d="M.06.4h25.542v25.602H.06z"/>
    </defs>
    <g fill="none" fill-rule="evenodd">
        <mask id="b" fill="#fff">
            <use xlink:href="#a"/>
        </mask>
        <path fill="#0120B1" d="M16.801 14.002h-8a.798.798 0 1 0 0 1.597h8a.799.799 0 0 0 0-1.597zm1.597-4.801H7.199a.799.799 0 0 0 0 1.597h11.199a.798.798 0 1 0 0-1.597zM12.801.4C5.73.4 0 5.416 0 11.599c0 3.535 1.875 6.684 4.801 8.735v5.668l5.605-3.403c.778.125 1.574.199 2.395.199 7.07 0 12.801-5.011 12.801-11.199C25.602 5.416 19.871.4 12.801.4zm0 20.801c-.934 0-1.836-.11-2.703-.293l-3.77 2.262.051-3.711c-2.887-1.735-4.777-4.606-4.777-7.86 0-5.301 5.011-9.597 11.199-9.597C18.984 2.002 24 6.298 24 11.599c0 5.301-5.016 9.602-11.199 9.602z" mask="url(#b)"/>
    </g>
</svg>
